<svg width="15.000000" height="14.166992" viewBox="0 0 15 14.167" fill="none" xmlns="http://www.w3.org/2000/svg" xmlns:xlink="http://www.w3.org/1999/xlink">
	<desc>
			Created with Pixso.
	</desc>
	<defs/>
	<path id="Vector" d="M13.33 1.25L1.66 1.25C1.43 1.25 1.25 1.43 1.25 1.66L1.25 12.5C1.25 12.73 1.43 12.91 1.66 12.91L13.33 12.91C13.56 12.91 13.75 12.73 13.75 12.5L13.75 1.66C13.75 1.43 13.56 1.25 13.33 1.25ZM1.66 0C0.74 0 0 0.74 0 1.66L0 12.5C0 13.42 0.74 14.16 1.66 14.16L13.33 14.16C14.25 14.16 15 13.42 15 12.5L15 1.66C15 0.74 14.25 0 13.33 0L1.66 0Z" fill="#707070" fill-opacity="1.000000" fill-rule="evenodd"/>
</svg>
