<svg width="19.643555" height="18.846680" viewBox="0 0 19.6436 18.8467" fill="none" xmlns="http://www.w3.org/2000/svg" xmlns:xlink="http://www.w3.org/1999/xlink">
	<desc>
			Created with Pixso.
	</desc>
	<defs/>
	<path id="Vector" d="M5.32 2.09L3.39 4.49C4.2 4.91 4.55 5.99 3.96 6.83L2.42 9.03L7.93 9.03L6.39 6.83C5.75 5.92 6.22 4.72 7.18 4.39L5.32 2.09ZM9.04 4.31L5.71 0.18C5.51 -0.07 5.13 -0.07 4.93 0.18L1.61 4.31L1.6 4.32L1.44 4.51L1.05 4.99C0.88 5.21 0.92 5.51 1.1 5.67C1.15 5.71 1.2 5.75 1.25 5.77C1.31 5.79 1.37 5.81 1.44 5.81L2.07 5.81L2.31 5.81L2.33 5.81L2.51 5.81L2.65 5.81C2.73 5.81 2.78 5.9 2.73 5.96L2.65 6.08L1.93 7.11L1.79 7.31L0.59 9.03L0.58 9.03L0.5 9.15L0.09 9.74C-0.15 10.07 0.09 10.53 0.5 10.53L1.21 10.53L1.36 10.53L1.37 10.53L4.44 10.53L4.44 13.24C4.06 13.2 3.68 13.18 3.29 13.18C2.59 13.18 1.9 13.24 1.23 13.36C0.8 13.44 0.56 13.88 0.69 14.3C0.82 14.67 1.2 14.89 1.59 14.82C2.14 14.73 2.71 14.68 3.29 14.68C6.49 14.68 9.34 16.18 11.17 18.52C11.37 18.79 11.72 18.91 12.05 18.8C12.52 18.65 12.72 18.09 12.42 17.69C11.74 16.8 10.93 16.01 10.02 15.35C11.84 13.43 14.42 12.23 17.28 12.23C17.77 12.23 18.25 12.26 18.72 12.33C19.19 12.4 19.64 12.05 19.64 11.57C19.64 11.22 19.39 10.92 19.05 10.86C18.47 10.77 17.88 10.73 17.28 10.73C16.9 10.73 16.52 10.75 16.14 10.78L16.14 8.62L17.83 8.62L17.83 8.62L17.98 8.62L18.7 8.62C19.1 8.62 19.34 8.16 19.11 7.83L18.7 7.25L18.61 7.12L18.61 7.12L18 6.26L17.86 6.06L17.14 5.03L17.06 4.91C17.01 4.85 17.06 4.76 17.14 4.76L17.27 4.76L17.28 4.76L17.28 4.76L17.53 4.76L18.15 4.76C18.3 4.76 18.43 4.69 18.52 4.59C18.55 4.56 18.57 4.52 18.59 4.49C18.68 4.32 18.67 4.11 18.54 3.94L18.15 3.46L17.99 3.27L17.98 3.26L15.55 0.24C15.35 -0.01 14.97 -0.01 14.77 0.24L12.34 3.26L12.33 3.27L12.17 3.46L11.78 3.94C11.71 4.03 11.68 4.12 11.67 4.22C11.67 4.23 11.67 4.24 11.67 4.25C11.67 4.51 11.87 4.76 12.17 4.76L12.79 4.76L12.94 4.76C12.97 4.76 13 4.77 13.02 4.79L13.02 4.8C13.04 4.83 13.04 4.88 13.02 4.91L12.94 5.03L12.21 6.06L12.17 6.12L12.08 6.25L11.47 7.12L11.47 7.12L11.38 7.25L10.97 7.83C10.74 8.16 10.98 8.62 11.38 8.62L12.09 8.62L12.25 8.62L12.25 8.62L14.64 8.62L14.64 11.03C12.37 11.56 10.36 12.77 8.83 14.43C8.8 14.47 8.77 14.51 8.74 14.55C7.87 14.08 6.93 13.72 5.94 13.49L5.94 10.53L8.98 10.53L8.99 10.53L9.14 10.53L9.85 10.53C10.26 10.53 10.49 10.07 10.26 9.74L9.85 9.15L9.76 9.03L9.76 9.03L8.56 7.31L8.42 7.11L7.7 6.08L7.62 5.96C7.57 5.9 7.62 5.81 7.7 5.81L7.84 5.81L8.32 5.81L8.33 5.81L8.58 5.81L9.1 5.81L9.2 5.81C9.24 5.81 9.29 5.8 9.33 5.79C9.66 5.7 9.82 5.29 9.59 4.99L9.2 4.51L9.04 4.32L9.04 4.31ZM13.96 3.63L15.16 2.14L16.26 3.51C15.56 3.98 15.28 4.99 15.83 5.77L16.77 7.12L13.3 7.12L14.25 5.77C14.76 5.04 14.56 4.13 13.96 3.63Z" fill="#31775A" fill-opacity="1.000000" fill-rule="evenodd"/>
</svg>
