<svg width="18.437500" height="19.139648" viewBox="0 0 18.4375 19.1396" fill="none" xmlns="http://www.w3.org/2000/svg" xmlns:xlink="http://www.w3.org/1999/xlink">
	<desc>
			Created with Pixso.
	</desc>
	<defs/>
	<path id="Vector" d="M0 17.12C0.45 17.33 0.91 17.53 1.38 17.71C3.82 18.63 6.46 19.13 9.21 19.13C11.97 19.13 14.61 18.63 17.04 17.7C17.51 17.53 17.98 17.33 18.43 17.12L17.72 15.8L16.78 14.06L16.01 12.61L10.07 1.58L9.21 0L8.36 1.58L0.71 15.8L0 17.12ZM9.21 3.16L14.6 13.16C12.91 13.72 11.1 14.03 9.21 14.03C7.33 14.03 5.52 13.72 3.83 13.16L9.21 3.16ZM9.21 15.66C7.05 15.66 4.98 15.29 3.05 14.62L2.1 16.37C4.32 17.19 6.71 17.63 9.21 17.63C11.71 17.63 14.11 17.19 16.33 16.37L15.38 14.62C13.45 15.29 11.38 15.66 9.21 15.66ZM10.82 11.86C11.37 11.86 11.82 11.42 11.82 10.86C11.82 10.31 11.37 9.86 10.82 9.86C10.27 9.86 9.82 10.31 9.82 10.86C9.82 11.42 10.27 11.86 10.82 11.86ZM8.5 11.86C8.5 12.42 8.06 12.86 7.5 12.86C6.95 12.86 6.5 12.42 6.5 11.86C6.5 11.31 6.95 10.86 7.5 10.86C8.06 10.86 8.5 11.31 8.5 11.86ZM9.14 8.86C9.7 8.86 10.14 8.42 10.14 7.86C10.14 7.31 9.7 6.86 9.14 6.86C8.59 6.86 8.14 7.31 8.14 7.86C8.14 8.42 8.59 8.86 9.14 8.86Z" fill="#7A1D47" fill-opacity="1.000000" fill-rule="evenodd"/>
</svg>
