<svg width="17.111328" height="18.326172" viewBox="0 0 17.1113 18.3262" fill="none" xmlns="http://www.w3.org/2000/svg" xmlns:xlink="http://www.w3.org/1999/xlink">
	<desc>
			Created with Pixso.
	</desc>
	<defs/>
	<path id="Vector" d="M4.55 1.36L5.5 2.38C5.55 2.41 5.59 2.45 5.63 2.49L7.01 3.93L8.16 1.36L4.55 1.36ZM2.84 1.52L4.09 2.86L0.08 11.57C-0.08 11.91 -0.01 12.32 0.25 12.58L1.59 13.97C1.61 14 1.64 14.03 1.66 14.06L5.33 17.84C5.63 18.15 6.04 18.32 6.47 18.32L11.31 18.32C11.65 18.32 11.94 18.07 11.99 17.75C12.09 17.68 12.17 17.6 12.25 17.49L16.94 10.71C17.33 10.15 16.99 9.4 16.35 9.3L15.25 5.94C15.06 5.34 14.32 5.12 13.83 5.51L9.37 9.03C9.28 9.11 9.2 9.19 9.15 9.29L6.23 9.29C6.19 9.29 6.16 9.29 6.12 9.29L7.78 5.55C7.81 5.49 7.83 5.42 7.84 5.35C7.89 5.29 7.92 5.23 7.96 5.16L9.69 1.27C9.95 0.67 9.51 0 8.86 0L3.5 0C2.71 0 2.3 0.94 2.84 1.52ZM10.33 16.96L5.51 10.75C5.5 10.75 5.5 10.74 5.49 10.73L3.87 14.38L6.31 16.89C6.35 16.93 6.41 16.96 6.47 16.96L10.33 16.96ZM1.45 11.86L5.09 3.94L6.39 5.33L2.85 13.32L1.45 11.86ZM7.16 10.65L11.48 16.21L15.32 10.66L9.93 10.66C9.9 10.66 9.86 10.65 9.83 10.65L7.16 10.65ZM14.91 9.29L11.25 9.29L14.16 6.99L14.91 9.29Z" fill="#FFAD43" fill-opacity="1.000000" fill-rule="evenodd"/>
</svg>
