<svg width="18.731445" height="18.435547" viewBox="0 0 18.7314 18.4355" fill="none" xmlns="http://www.w3.org/2000/svg" xmlns:xlink="http://www.w3.org/1999/xlink">
	<desc>
			Created with Pixso.
	</desc>
	<defs/>
	<path id="Vector" d="M11.35 14.93C12.09 13.45 12.59 11.29 12.59 8.84C12.59 5.82 10.71 3.05 9.35 1.48C9.32 1.45 9.3 1.44 9.29 1.43C9.28 1.43 9.27 1.42 9.26 1.42C9.25 1.42 9.23 1.43 9.22 1.43C9.21 1.44 9.19 1.45 9.16 1.48C7.8 3.05 5.92 5.82 5.92 8.84C5.92 11.29 6.42 13.45 7.17 14.93C7.95 16.51 8.77 16.93 9.26 16.93C9.74 16.93 10.56 16.51 11.35 14.93ZM14.01 8.48C14.58 8.35 15.14 8.27 15.67 8.23C16.05 6.82 15.99 5.3 15.83 4.14C15.82 4.11 15.82 4.1 15.81 4.09C15.81 4.08 15.8 4.08 15.8 4.08C15.8 4.08 15.79 4.08 15.79 4.08C15.78 4.07 15.76 4.07 15.73 4.08C14.98 4.32 14.11 4.66 13.28 5.15C13.1 4.7 12.9 4.26 12.69 3.84C13.62 3.31 14.55 2.95 15.31 2.72C16.21 2.44 17.11 3 17.24 3.94C17.4 5.06 17.49 6.62 17.15 8.19C17.19 8.19 17.23 8.19 17.27 8.19C18.22 8.22 18.88 9.05 18.7 9.98C18.36 11.68 17.54 14.31 15.5 15.93C13.38 17.61 11.07 18.5 9.36 18.43C7.66 18.5 5.34 17.61 3.22 15.93C1.19 14.31 0.36 11.68 0.03 9.98C-0.16 9.05 0.5 8.22 1.45 8.19C1.49 8.19 1.53 8.19 1.57 8.19C1.23 6.62 1.32 5.06 1.48 3.94C1.61 3 2.51 2.44 3.41 2.72C4.13 2.94 5 3.27 5.87 3.75C5.66 4.16 5.45 4.6 5.27 5.05C4.49 4.61 3.69 4.3 2.99 4.08C2.96 4.07 2.94 4.07 2.93 4.08C2.93 4.08 2.92 4.08 2.92 4.08C2.92 4.08 2.91 4.08 2.91 4.09C2.91 4.1 2.9 4.11 2.89 4.14C2.73 5.3 2.67 6.82 3.05 8.23C3.52 8.26 4.01 8.33 4.5 8.43C4.66 5.05 6.72 2.12 8.08 0.55C8.71 -0.19 9.8 -0.19 10.43 0.55C11.79 2.13 13.87 5.07 14.01 8.48ZM12.21 16.31C13.17 14.78 13.84 12.53 13.99 9.95C15.11 9.65 16.28 9.59 17.22 9.62C17.26 9.62 17.27 9.63 17.28 9.63C17.29 9.63 17.29 9.64 17.29 9.64C17.29 9.64 17.29 9.65 17.3 9.65C17.3 9.66 17.3 9.68 17.29 9.71C16.98 11.32 16.23 13.52 14.61 14.81C13.8 15.46 12.98 15.96 12.21 16.31ZM6.21 16.17C5.53 15.83 4.82 15.38 4.11 14.81C2.49 13.52 1.74 11.32 1.43 9.71C1.42 9.68 1.42 9.66 1.43 9.65C1.43 9.65 1.43 9.64 1.43 9.64C1.43 9.64 1.44 9.63 1.44 9.63C1.45 9.63 1.47 9.62 1.5 9.62C2.38 9.59 3.46 9.64 4.52 9.9C4.66 12.41 5.29 14.63 6.21 16.17Z" fill="#31775A" fill-opacity="1.000000" fill-rule="evenodd"/>
</svg>
