<svg width="18.949219" height="19.654297" viewBox="0 0 18.9492 19.6543" fill="none" xmlns="http://www.w3.org/2000/svg" xmlns:xlink="http://www.w3.org/1999/xlink">
	<desc>
			Created with Pixso.
	</desc>
	<defs/>
	<path id="Vector" d="M15.43 9.3L16.64 9.3C17.88 9.3 18.85 10.37 18.74 11.6L18.09 18.93C18.05 19.34 17.71 19.65 17.3 19.65C16.84 19.65 16.47 19.25 16.51 18.79L17.17 11.46C17.19 11.15 16.95 10.88 16.64 10.88L2.3 10.88C1.99 10.88 1.74 11.15 1.77 11.46L2.42 18.79C2.47 19.25 2.1 19.65 1.64 19.65C1.23 19.65 0.89 19.34 0.85 18.93L0.2 11.6C0.09 10.37 1.06 9.3 2.3 9.3L3.4 9.3C3.3 8.55 3.25 7.84 3.25 7.22C3.25 6.8 3.27 6.4 3.32 6L0.78 6C0.35 6 0 5.65 0 5.21C0 4.77 0.35 4.42 0.78 4.42L3.42 4.42C3.49 4.42 3.57 4.43 3.63 4.45C4.43 1.83 6.41 0 9.42 0C12.44 0 14.43 1.85 15.21 4.49C15.31 4.44 15.41 4.42 15.52 4.42L18.16 4.42C18.59 4.42 18.94 4.77 18.94 5.21C18.94 5.65 18.59 6 18.16 6L15.52 6L15.52 6C15.57 6.4 15.59 6.8 15.59 7.22C15.59 7.84 15.54 8.55 15.43 9.3ZM13.83 9.3C13.95 8.54 14.01 7.83 14.01 7.22C14.01 5.5 13.54 4.06 12.77 3.1C12.03 2.17 10.94 1.57 9.42 1.57C7.9 1.57 6.81 2.17 6.07 3.1C5.3 4.06 4.82 5.5 4.82 7.22C4.82 7.83 4.88 8.54 5 9.3L13.83 9.3ZM8.27 5.98C8.27 6.27 8.04 6.5 7.75 6.5C7.46 6.5 7.22 6.27 7.22 5.98C7.22 5.69 7.46 5.45 7.75 5.45C8.04 5.45 8.27 5.69 8.27 5.98ZM9.33 5.98C9.33 6.85 8.62 7.56 7.75 7.56C6.87 7.56 6.17 6.85 6.17 5.98C6.17 5.1 6.87 4.4 7.75 4.4C8.62 4.4 9.33 5.1 9.33 5.98ZM11.19 6.5C11.48 6.5 11.72 6.27 11.72 5.98C11.72 5.69 11.48 5.45 11.19 5.45C10.9 5.45 10.67 5.69 10.67 5.98C10.67 6.27 10.9 6.5 11.19 6.5ZM11.19 7.56C12.06 7.56 12.77 6.85 12.77 5.98C12.77 5.1 12.06 4.4 11.19 4.4C10.32 4.4 9.61 5.1 9.61 5.98C9.61 6.85 10.32 7.56 11.19 7.56ZM5.38 15.08L5.38 14.02L8.54 14.02L8.54 15.08L5.38 15.08ZM3.8 12.97C3.8 12.68 4.04 12.44 4.33 12.44L9.59 12.44C9.88 12.44 10.12 12.68 10.12 12.97L10.12 16.13C10.12 16.42 9.88 16.65 9.59 16.65L4.33 16.65C4.04 16.65 3.8 16.42 3.8 16.13L3.8 12.97ZM10.93 13.41C10.93 12.98 11.28 12.62 11.72 12.62L14.35 12.62C14.79 12.62 15.14 12.98 15.14 13.41C15.14 13.85 14.79 14.2 14.35 14.2L11.72 14.2C11.28 14.2 10.93 13.85 10.93 13.41ZM11.72 14.77C11.28 14.77 10.93 15.13 10.93 15.56C10.93 16 11.28 16.35 11.72 16.35L14.35 16.35C14.79 16.35 15.14 16 15.14 15.56C15.14 15.13 14.79 14.77 14.35 14.77L11.72 14.77Z" fill="#7A1D47" fill-opacity="1.000000" fill-rule="evenodd"/>
</svg>
